<svg width="31" height="27" viewBox="0 0 31 27" fill="none" xmlns="http://www.w3.org/2000/svg">
<g id="blender logo" clip-path="url(#clip0_11_100)">
<path id="Vector" d="M11.5423 15.2259C11.6033 14.2506 11.8618 13.2983 12.302 12.428C12.7421 11.5577 13.3545 10.788 14.1011 10.1666C15.6541 8.86138 17.6147 8.15423 19.6347 8.17066C21.6486 8.15653 23.6024 8.86368 25.1492 10.1666C25.8968 10.7878 26.5104 11.5572 26.952 12.4274C27.3936 13.2976 27.6538 14.2501 27.7167 15.2259C27.7631 16.2344 27.5948 17.2412 27.223 18.1784C26.8512 19.1155 26.2847 19.9611 25.5617 20.658C23.9694 22.196 21.8463 23.0463 19.6434 23.0286C17.4366 23.0535 15.3083 22.2023 13.7164 20.658C12.2682 19.2284 11.4449 17.3063 11.5615 15.2365L11.5423 15.2259Z" fill="white"/>
<path id="Vector_2" d="M15.9688 14.978C16.0006 14.4765 16.1342 13.987 16.3612 13.5399C16.5881 13.0927 16.9037 12.6975 17.2883 12.3788C18.0848 11.7087 19.0907 11.3454 20.1273 11.3536C21.1622 11.3464 22.1661 11.7096 22.9611 12.3788C23.3454 12.6978 23.6607 13.0931 23.8877 13.5402C24.1146 13.9872 24.2484 14.4766 24.2806 14.978C24.3043 15.4963 24.2177 16.0138 24.0267 16.4955C23.8358 16.9772 23.5448 17.412 23.1735 17.7705C22.3537 18.5615 21.2608 18.9981 20.1273 18.9874C18.9933 19.0005 17.8996 18.5636 17.0811 17.7705C16.7085 17.4141 16.4166 16.9805 16.2255 16.4994C16.0344 16.0182 15.9486 15.501 15.9741 14.9832L15.9688 14.978Z" fill="#265787"/>
<path id="Vector_3" d="M9.4535 17.1747C9.48954 17.789 9.59943 18.3967 9.78074 18.9842C10.1951 20.3111 10.892 21.5302 11.8226 22.5558C12.8198 23.6636 14.0369 24.5468 15.3944 25.1479C16.8721 25.8074 18.4702 26.1464 20.0856 26.1432C21.7023 26.1434 23.3008 25.7988 24.7767 25.1321C26.1344 24.5249 27.3512 23.6371 28.3485 22.5259C29.2797 21.4967 29.9766 20.274 30.3904 18.9438C30.5925 18.2953 30.721 17.6257 30.7733 16.9478C30.8237 16.2857 30.8027 15.62 30.7106 14.9624C30.5301 13.6864 30.0858 12.4629 29.4069 11.3715C28.7785 10.3544 27.9729 9.46065 27.0291 8.73369L17.4206 1.27397L17.3945 1.25287C16.7643 0.763994 15.7008 0.765752 15.0115 1.25287C14.3222 1.73998 14.2299 2.56825 14.8548 3.08526L18.8671 6.38252L6.651 6.39483H6.63534C5.624 6.39483 4.65271 7.06484 4.46297 7.91421C4.27324 8.76359 4.9521 9.4969 6.00521 9.4969L12.1864 9.47756L1.11565 18.0346L1.07213 18.0663C0.0277271 18.8717 -0.306483 20.2152 0.351493 21.0558C1.00947 21.8964 2.44031 21.9227 3.48471 21.0558L9.51268 16.0633C9.46527 16.4202 9.43795 16.7795 9.43087 17.1395L9.4535 17.1747ZM24.9803 19.4291C24.3424 20.0735 23.5838 20.583 22.7487 20.9279C21.9137 21.2727 21.019 21.4459 20.1169 21.4374C19.214 21.4508 18.3175 21.2813 17.4805 20.9392C16.6434 20.597 15.8826 20.0889 15.243 19.445C14.6578 18.8505 14.2056 18.1364 13.9166 17.3505C13.6458 16.6 13.5413 15.7987 13.6102 15.0029C13.6729 14.2221 13.8995 13.4637 14.2752 12.7783C14.6515 12.0967 15.1524 11.4934 15.7513 11.0004C16.985 10.0004 18.5212 9.45847 20.103 9.46525C21.6868 9.45131 23.2269 9.98982 24.4634 10.9899C25.0618 11.4805 25.5627 12.0815 25.9394 12.7607C26.3148 13.4414 26.5427 14.1949 26.6079 14.9712C26.6762 15.767 26.5717 16.5682 26.3015 17.3189C26.0138 18.1112 25.5595 18.8312 24.9699 19.4291H24.9803Z" fill="#EA7600"/>
</g>
<defs>
<clipPath id="clip0_11_100">
<rect width="30.7874" height="25.2614" fill="white" transform="translate(0.0137939 0.872742)"/>
</clipPath>
</defs>
</svg>
